<svg width="32" height="32" viewBox="0 0 32 32" fill="none" xmlns="http://www.w3.org/2000/svg">
<path d="M30 4.78476C30 6.39673 29.2688 7.82896 28.1544 8.69782L17.336 18.2631C17.135 18.4336 16.8738 18.1586 17.0188 17.9292L20.9871 10.0633C21.0983 9.84304 20.9541 9.57236 20.7259 9.57236H5.33425C2.95041 9.57236 1 7.41833 1 4.78618C1 2.15332 2.95041 7.02531e-07 5.33425 7.02531e-07H25.6658C28.0496 -0.00142016 30 2.15261 30 4.78476ZM5.33425 32H25.6658C28.0496 32 30 29.846 30 27.2138C30 24.581 28.0496 22.4276 25.6658 22.4276H10.2741C10.046 22.4276 9.90171 22.157 10.0129 21.9367L13.9812 14.0708C14.1262 13.8414 13.865 13.5664 13.664 13.7369L2.84564 23.3008C1.73123 24.1689 1 25.6018 1 27.2138C1 29.846 2.95041 32 5.33425 32Z" fill="url(#paint0_linear_712_15953)"/>
<defs>
<linearGradient id="paint0_linear_712_15953" x1="1" y1="0" x2="1" y2="32" gradientUnits="userSpaceOnUse">
<stop stop-color="#50ADFF"/>
<stop offset="1" stop-color="#7877FC"/>
</linearGradient>
</defs>
</svg>
